<svg width="135" height="178" viewBox="0 0 135 178" fill="none" xmlns="http://www.w3.org/2000/svg">
<g clip-path="url(#clip0_714_383)">
<path d="M11.442 112.728C9.28196 112.728 7.13197 111.828 5.60197 110.068C2.80197 106.848 3.15197 101.968 6.37197 99.168C9.57197 96.388 85.092 31.088 125.112 20.498C129.242 19.408 133.472 21.868 134.562 25.988C135.652 30.118 133.192 34.348 129.072 35.438C114.192 39.378 90.112 53.5681 59.442 76.4681C35.862 94.078 16.702 110.678 16.512 110.838C15.052 112.108 13.242 112.728 11.452 112.728" fill="#62C196"/>
<path d="M54.3516 178.308C50.6816 178.308 47.4316 175.688 46.7516 171.948C46.0016 167.778 28.5516 69.478 39.9216 29.678C41.0916 25.578 45.3716 23.198 49.4716 24.368C53.5716 25.538 55.9516 29.818 54.7816 33.918C50.5516 48.718 50.4216 76.668 54.4016 114.738C57.4616 144.008 61.9216 168.968 61.9616 169.218C62.7116 173.418 59.9216 177.438 55.7216 178.188C55.2616 178.268 54.8016 178.308 54.3416 178.308" fill="#3AC3F2"/>
<path d="M7.732 167.668C5.572 167.668 3.422 166.768 1.892 165.008C-0.907995 161.788 -0.557991 156.908 2.66201 154.108C5.86201 151.328 81.382 86.028 121.402 75.428C125.532 74.338 129.762 76.798 130.852 80.918C131.942 85.038 129.482 89.268 125.362 90.368C110.482 94.308 86.402 108.498 55.732 131.398C32.152 149.008 12.992 165.608 12.802 165.768C11.342 167.038 9.53201 167.658 7.74201 167.658" fill="white"/>
<path d="M93.9317 154.238C90.2617 154.238 87.0117 151.618 86.3317 147.878C85.5817 143.708 68.1317 45.408 79.5017 5.60796C80.6717 1.50796 84.9417 -0.872036 89.0517 0.297964C93.1517 1.46796 95.5317 5.74796 94.3617 9.84796C90.1317 24.648 90.0017 52.598 93.9817 90.668C97.0417 119.938 101.502 144.898 101.542 145.148C102.292 149.348 99.5017 153.368 95.3017 154.118C94.8417 154.198 94.3817 154.238 93.9217 154.238" fill="#F36C21"/>
</g>
<defs>
<clipPath id="clip0_714_383">
<rect width="135" height="178" fill="white"/>
</clipPath>
</defs>
</svg>
