<svg width="150" height="38" viewBox="0 0 150 38" fill="none" xmlns="http://www.w3.org/2000/svg">
<path d="M5.71772 13.6797V23.3668C5.71772 24.0237 5.87101 24.4949 6.17759 24.7803C6.48418 25.0657 7.00833 25.207 7.75007 25.2042H9.97316V28.2198H7.1143C5.48531 28.2198 4.23637 27.8391 3.36748 27.0776C2.49859 26.316 2.06414 25.077 2.06414 23.3604V13.6797H0V10.7255H2.06414V6.37256H5.71772V10.7255H9.97316V13.6797H5.71772Z" fill="white"/>
<path d="M29.222 20.8258H15.8496C15.9555 22.2231 16.4733 23.3456 17.403 24.1933C18.3392 25.0434 19.5677 25.499 20.8319 25.4648C22.7802 25.4648 24.157 24.6496 24.9623 23.0192H28.8681C28.3544 24.6091 27.3479 25.9942 25.9944 26.9737C24.607 28.0009 22.8862 28.5144 20.8319 28.5144C19.2625 28.5385 17.7144 28.1489 16.3434 27.3849C15.0266 26.6401 13.9473 25.5381 13.2302 24.206C12.4569 22.7453 12.0695 21.1113 12.1049 19.4589C12.0691 17.81 12.4457 16.1782 13.2005 14.7118C13.8964 13.3799 14.9668 12.2808 16.2798 11.5499C17.6776 10.7916 19.2483 10.409 20.8383 10.4394C22.3752 10.414 23.8928 10.7855 25.2442 11.5181C26.5186 12.2216 27.5656 13.2745 28.262 14.5528C29.0005 15.9341 29.3719 17.4818 29.3407 19.0478C29.3451 19.6429 29.3026 20.2374 29.2135 20.8258M25.5621 17.9034C25.5409 16.5682 25.064 15.4987 24.1316 14.6948C23.1991 13.8909 22.0448 13.489 20.6687 13.489C19.4869 13.4649 18.3401 13.8906 17.4602 14.68C16.5715 15.4726 16.0424 16.5471 15.8729 17.9034H25.5621Z" fill="white"/>
<path d="M73.0843 11.2956C74.1735 11.8664 75.0651 12.7528 75.6422 13.8387C76.2554 14.9619 76.562 16.3175 76.562 17.9055V28.2198H72.9741V18.4438C72.9741 16.8755 72.582 15.6746 71.7979 14.8411C71.0138 14.0075 69.9443 13.5893 68.5894 13.5865C67.2359 13.5865 66.1614 14.0047 65.366 14.8411C64.5706 15.6775 64.1736 16.8784 64.175 18.4438V28.2198H60.5532V10.7255H64.175V12.7261C64.7863 11.9913 65.5645 11.4136 66.4447 11.0413C67.3722 10.6391 68.3732 10.4342 69.3841 10.4394C70.6682 10.4159 71.9385 10.707 73.0843 11.2871" fill="white"/>
<path d="M84.2801 27.3848C82.9542 26.6415 81.8643 25.5398 81.1352 24.206C80.351 22.748 79.9575 21.1119 79.9929 19.4568C79.9616 17.8033 80.3674 16.1709 81.1691 14.7245C81.916 13.3831 83.0278 12.2809 84.3755 11.5456C85.7786 10.816 87.3367 10.4351 88.9181 10.4351C90.4995 10.4351 92.0577 10.816 93.4607 11.5456C94.8087 12.2814 95.921 13.3834 96.6692 14.7245C97.4693 16.1715 97.8742 17.8036 97.8433 19.4568C97.8757 21.1154 97.459 22.752 96.6375 24.1933C95.8603 25.5424 94.7219 26.6477 93.3505 27.3848C91.9402 28.1424 90.361 28.5303 88.7602 28.5123C87.194 28.5344 85.6493 28.1457 84.2801 27.3848ZM91.3796 24.7019C92.2171 24.2348 92.9054 23.5406 93.3653 22.6992C93.874 21.8105 94.1283 20.7304 94.1283 19.4589C94.1283 18.1873 93.8846 17.1129 93.3971 16.2355C92.9537 15.4027 92.2817 14.7138 91.4601 14.2498C90.6636 13.8077 89.7665 13.5785 88.8556 13.5843C87.9492 13.577 87.0565 13.8064 86.2659 14.2498C85.4551 14.7125 84.7979 15.403 84.3755 16.2355C83.9093 17.1143 83.6769 18.1887 83.6783 19.4589C83.6783 21.345 84.1601 22.8009 85.1236 23.8266C85.5845 24.3283 86.1476 24.7254 86.7749 24.9912C87.4022 25.257 88.0792 25.3852 88.7602 25.3673C89.6756 25.371 90.577 25.142 91.3796 24.7019Z" fill="white"/>
<path d="M117.347 20.8258H103.974C104.08 22.2231 104.599 23.3456 105.53 24.1933C106.466 25.0414 107.692 25.4968 108.955 25.4648C110.904 25.4648 112.281 24.6496 113.085 23.0192H117.008C116.494 24.6091 115.488 25.9942 114.134 26.9737C112.747 28.0008 111.026 28.5144 108.972 28.5144C107.4 28.5403 105.85 28.1514 104.477 27.387C103.16 26.6427 102.081 25.5405 101.366 24.2081C100.59 22.7476 100.201 21.1125 100.236 19.4589C100.201 17.8098 100.578 16.178 101.334 14.7118C102.03 13.3799 103.1 12.2808 104.413 11.5499C105.806 10.7944 107.37 10.4119 108.955 10.4394C110.495 10.4121 112.017 10.7837 113.371 11.5181C114.646 12.2216 115.693 13.2745 116.389 14.5528C117.127 15.9341 117.499 17.4818 117.468 19.0477C117.472 19.6428 117.43 20.2374 117.341 20.8258M113.689 17.9034C113.668 16.5682 113.191 15.4987 112.259 14.6948C111.326 13.8909 110.172 13.489 108.796 13.489C107.614 13.4635 106.468 13.8894 105.589 14.68C104.699 15.4726 104.169 16.547 104 17.9034H113.689Z" fill="white"/>
<path d="M126.756 11.1854C127.716 10.6677 128.796 10.4105 129.886 10.4394V14.1862H128.964C127.544 14.1862 126.47 14.5465 125.741 15.267C125.012 15.9876 124.646 17.2372 124.643 19.016V28.2198H121.034V10.7255H124.654V13.2686C125.163 12.3994 125.895 11.6812 126.773 11.1875" fill="white"/>
<path d="M133.114 14.7266C133.796 13.4207 134.826 12.3291 136.091 11.5724C137.355 10.8158 138.804 10.4236 140.277 10.4394C141.526 10.4102 142.763 10.6881 143.88 11.2489C144.839 11.7325 145.68 12.4213 146.342 13.2664V10.7234H149.994V28.2198H146.349V25.6216C145.681 26.4925 144.822 27.1992 143.839 27.6879C142.621 28.2836 141.273 28.565 139.918 28.5065C138.563 28.448 137.244 28.0515 136.081 27.353C134.816 26.5623 133.791 25.4421 133.114 24.1127C132.366 22.6543 131.99 21.034 132.018 19.3953C131.987 17.7739 132.364 16.1708 133.114 14.733M145.596 16.3224C145.143 15.479 144.468 14.7755 143.645 14.2879C142.854 13.8275 141.955 13.5867 141.04 13.5907C140.126 13.5854 139.227 13.8208 138.433 14.2731C137.61 14.7469 136.935 15.4393 136.481 16.2736C135.963 17.2331 135.705 18.3116 135.733 19.4017C135.709 20.5076 135.966 21.6017 136.481 22.5805C136.932 23.4434 137.614 24.164 138.45 24.6616C139.233 25.1294 140.128 25.3762 141.04 25.3758C141.955 25.3797 142.854 25.139 143.645 24.6786C144.471 24.1881 145.147 23.479 145.596 22.6293C146.112 21.6567 146.37 20.568 146.344 19.4673C146.371 18.3726 146.114 17.2897 145.596 16.3245" fill="white"/>
<path d="M32.8249 23.8902C32.4909 23.8905 32.1648 23.7886 31.8903 23.5983C31.6158 23.408 31.4061 23.1383 31.2892 22.8254C31.1723 22.5125 31.1538 22.1714 31.2362 21.8477C31.3187 21.524 31.4981 21.2332 31.7505 21.0144C32.4286 20.4274 48.4353 6.58872 56.9144 4.34232C57.3342 4.22991 57.7815 4.28889 58.1579 4.50629C58.5343 4.72369 58.8089 5.08169 58.9213 5.50155C59.0337 5.92141 58.9747 6.36872 58.7573 6.7451C58.5399 7.12147 58.1819 7.39606 57.7621 7.50847C54.6086 8.34345 49.497 11.3507 43.0058 16.1974C38.0086 19.9272 33.946 23.4473 33.9057 23.4812C33.6087 23.7403 33.2276 23.8827 32.8334 23.8817" fill="#4AD69C"/>
<path d="M41.9185 37.7903C41.5348 37.7895 41.1635 37.6542 40.8692 37.408C40.5749 37.1617 40.3763 36.8201 40.3079 36.4425C40.1489 35.5588 36.4509 14.7245 38.8604 6.28991C38.9876 5.88138 39.2696 5.53884 39.6461 5.33552C40.0226 5.13219 40.4636 5.08423 40.875 5.20189C41.2864 5.31954 41.6354 5.59347 41.8474 5.96511C42.0595 6.33674 42.1177 6.77658 42.0096 7.19058C41.1132 10.3271 41.0856 16.2504 41.9291 24.3162C42.5776 30.5192 43.5228 35.8088 43.5313 35.8618C43.5701 36.0739 43.5666 36.2916 43.5211 36.5024C43.4756 36.7132 43.3889 36.9129 43.2661 37.0901C43.1432 37.2673 42.9866 37.4185 42.8052 37.535C42.6237 37.6515 42.4211 37.7311 42.2088 37.7691C42.1132 37.7877 42.0159 37.7969 41.9185 37.7967" fill="#0DC6FF"/>
<path d="M32.0389 35.5333C31.7079 35.5302 31.3857 35.427 31.1145 35.2371C30.8434 35.0473 30.6362 34.7797 30.5201 34.4698C30.404 34.1599 30.3845 33.822 30.4642 33.5008C30.5439 33.1795 30.719 32.89 30.9665 32.6702C31.6426 32.0832 47.6492 18.2445 56.1304 15.9982C56.5454 15.9014 56.9818 15.9701 57.347 16.1898C57.7122 16.4094 57.9774 16.7628 58.0863 17.1748C58.1952 17.5868 58.1393 18.025 57.9304 18.3964C57.7215 18.7679 57.3761 19.0433 56.9675 19.1643C53.8141 19.9993 48.7131 23.0065 42.2112 27.8532C37.2141 31.5831 33.1536 35.1031 33.1133 35.137C32.8161 35.3958 32.4351 35.5381 32.041 35.5376" fill="white"/>
<path d="M50.3067 32.6893C49.9227 32.6884 49.5511 32.5528 49.2568 32.3061C48.9625 32.0595 48.764 31.7173 48.6961 31.3393C48.5371 30.4577 44.839 9.62347 47.2486 1.18889C47.3038 0.977626 47.4006 0.779516 47.5334 0.606206C47.6662 0.432895 47.8323 0.287877 48.0219 0.17968C48.2115 0.0714819 48.4209 0.00228387 48.6377 -0.0238435C48.8544 -0.0499709 49.0742 -0.0324977 49.2842 0.0275401C49.4941 0.087578 49.6899 0.188972 49.8601 0.325766C50.0302 0.462559 50.1713 0.631989 50.2751 0.824099C50.3789 1.01621 50.4432 1.22712 50.4642 1.44444C50.4853 1.66176 50.4627 1.8811 50.3978 2.08957C49.5014 5.22604 49.4738 11.1472 50.3173 19.2152C50.9658 25.4182 51.911 30.7078 51.9194 30.7608C51.9582 30.9729 51.9548 31.1906 51.9093 31.4014C51.8638 31.6121 51.7771 31.8118 51.6543 31.989C51.5314 32.1662 51.3748 32.3174 51.1933 32.434C51.0119 32.5505 50.8093 32.6301 50.597 32.6681C50.5012 32.6856 50.4041 32.6948 50.3067 32.6957" fill="#F46A0C"/>
</svg>
